<svg width="675" height="142" viewBox="0 0 675 142" fill="none" xmlns="http://www.w3.org/2000/svg">
<path d="M132 66C132 102.451 102.451 132 66 132C29.5492 132 0 102.451 0 66C0 29.5492 29.5492 0 66 0C102.451 0 132 29.5492 132 66Z" fill="#F3A100"/>
<path d="M99 66.5C99 85.0015 84.0015 100 65.5 100C46.9985 100 32 85.0015 32 66.5C32 47.9985 46.9985 33 65.5 33C84.0015 33 99 47.9985 99 66.5Z" fill="white"/>
<path d="M83.5551 37.555C99.8779 21.2322 126.342 21.2322 142.665 37.555L143.469 38.3588C159.792 54.6816 159.792 81.1461 143.469 97.4688V97.4688C127.146 113.792 100.682 113.792 84.3588 97.4689L83.5551 96.6651C67.2323 80.3423 67.2323 53.8778 83.5551 37.555V37.555Z" fill="white"/>
<path d="M142 68C142 83.464 129.464 96 114 96C98.536 96 86 83.464 86 68C86 52.536 98.536 40 114 40C129.464 40 142 52.536 142 68Z" fill="#FFC045"/>
<path d="M167.165 105V30.525H181.115L182.84 42.675L179.315 39.675C182.765 36.425 186.54 33.875 190.64 32.025C194.79 30.175 199.415 29.25 204.515 29.25C208.365 29.25 211.865 29.85 215.015 31.05C218.215 32.2 220.99 34 223.34 36.45C225.74 38.9 227.665 42.025 229.115 45.825L224.84 44.55C227.19 39.75 230.665 36 235.265 33.3C239.865 30.6 245.415 29.25 251.915 29.25C258.565 29.25 264.04 30.575 268.34 33.225C272.64 35.825 275.815 39.625 277.865 44.625C279.965 49.625 281.015 55.65 281.015 62.7V105H264.215V63.6C264.215 56.65 263.04 51.55 260.69 48.3C258.34 45 254.44 43.35 248.99 43.35C245.84 43.35 243.19 43.875 241.04 44.925C238.89 45.925 237.19 47.35 235.94 49.2C234.69 51.05 233.79 53.15 233.24 55.5C232.74 57.85 232.49 60.35 232.49 63V105H215.69V64.575C215.69 59.425 215.115 55.3 213.965 52.2C212.815 49.1 211.09 46.85 208.79 45.45C206.49 44.05 203.64 43.35 200.24 43.35C195.69 43.35 191.815 44.4 188.615 46.5C185.465 48.55 182.965 51.525 181.115 55.425L183.89 46.425V105H167.165ZM330.851 106.5C322.851 106.5 316.026 104.75 310.376 101.25C304.776 97.75 300.476 93.075 297.476 87.225C294.526 81.375 293.051 74.925 293.051 67.875C293.051 60.825 294.526 54.35 297.476 48.45C300.476 42.55 304.776 37.85 310.376 34.35C316.026 30.8 322.851 29.025 330.851 29.025C338.801 29.025 345.601 30.8 351.251 34.35C356.901 37.85 361.201 42.55 364.151 48.45C367.151 54.35 368.651 60.825 368.651 67.875C368.651 74.925 367.151 81.375 364.151 87.225C361.201 93.075 356.901 97.75 351.251 101.25C345.601 104.75 338.801 106.5 330.851 106.5ZM330.851 92.4C337.451 92.4 342.526 90.175 346.076 85.725C349.676 81.225 351.476 75.275 351.476 67.875C351.476 60.375 349.676 54.375 346.076 49.875C342.526 45.375 337.451 43.125 330.851 43.125C324.251 43.125 319.151 45.375 315.551 49.875C311.951 54.375 310.151 60.375 310.151 67.875C310.151 75.275 311.951 81.225 315.551 85.725C319.151 90.175 324.251 92.4 330.851 92.4ZM381.351 105V30.525H396.276L397.701 44.55L393.051 40.125C396.651 36.575 400.551 33.875 404.751 32.025C409.001 30.175 413.626 29.25 418.626 29.25C428.626 29.25 435.951 32.4 440.601 38.7C445.251 45 447.576 53.325 447.576 63.675V105H430.851V64.575C430.851 57.275 429.576 51.925 427.026 48.525C424.476 45.075 420.276 43.35 414.426 43.35C409.876 43.35 406.001 44.4 402.801 46.5C399.601 48.6 397.101 51.625 395.301 55.575L398.076 46.725V105H381.351ZM499.904 106.5C491.004 106.5 483.554 104.7 477.554 101.1C471.604 97.5 467.104 92.75 464.054 86.85C461.054 80.9 459.554 74.375 459.554 67.275C459.554 60.425 460.954 54.125 463.754 48.375C466.604 42.575 470.729 37.95 476.129 34.5C481.579 31 488.179 29.25 495.929 29.25C502.729 29.25 508.529 30.625 513.329 33.375C518.129 36.125 521.779 39.925 524.279 44.775C526.829 49.575 528.104 55.075 528.104 61.275C528.104 62.675 528.004 64.15 527.804 65.7C527.654 67.2 527.429 68.75 527.129 70.35H476.879C477.579 75.8 479.104 80.125 481.454 83.325C483.804 86.525 486.729 88.85 490.229 90.3C493.729 91.7 497.504 92.4 501.554 92.4C505.554 92.4 509.404 91.925 513.104 90.975C516.854 89.975 520.329 88.625 523.529 86.925L524.804 100.8C521.954 102.2 518.429 103.5 514.229 104.7C510.029 105.9 505.254 106.5 499.904 106.5ZM477.629 58.95H511.004C511.004 56.25 510.479 53.725 509.429 51.375C508.429 48.975 506.804 47.05 504.554 45.6C502.354 44.1 499.454 43.35 495.854 43.35C490.604 43.35 486.504 44.775 483.554 47.625C480.654 50.475 478.679 54.25 477.629 58.95ZM545.576 141.3L562.301 100.65L531.326 30.525H550.001L570.551 81.15L590.501 30.525H609.101L562.901 141.3H545.576Z" fill="white"/>
</svg>
