<svg width="182" height="49" viewBox="0 0 182 49" fill="none" xmlns="http://www.w3.org/2000/svg">
<path d="M55.3224 10.9091H61.7713L70.4077 31.9886H70.7486L79.3849 10.9091H85.8338V40H80.777V20.0142H80.5071L72.4673 39.9148H68.6889L60.6491 19.9716H60.3793V40H55.3224V10.9091ZM100.362 40.4261C98.2315 40.4261 96.3849 39.9574 94.8224 39.0199C93.2599 38.0824 92.0478 36.7708 91.1861 35.0852C90.3338 33.3996 89.9077 31.4299 89.9077 29.1761C89.9077 26.9223 90.3338 24.9479 91.1861 23.2528C92.0478 21.5578 93.2599 20.2415 94.8224 19.304C96.3849 18.3665 98.2315 17.8977 100.362 17.8977C102.493 17.8977 104.339 18.3665 105.902 19.304C107.464 20.2415 108.672 21.5578 109.524 23.2528C110.386 24.9479 110.817 26.9223 110.817 29.1761C110.817 31.4299 110.386 33.3996 109.524 35.0852C108.672 36.7708 107.464 38.0824 105.902 39.0199C104.339 39.9574 102.493 40.4261 100.362 40.4261ZM100.391 36.3068C101.546 36.3068 102.512 35.9896 103.288 35.3551C104.065 34.7112 104.643 33.8494 105.021 32.7699C105.41 31.6903 105.604 30.4877 105.604 29.1619C105.604 27.8267 105.41 26.6193 105.021 25.5398C104.643 24.4508 104.065 23.5843 103.288 22.9403C102.512 22.2964 101.546 21.9744 100.391 21.9744C99.2069 21.9744 98.2221 22.2964 97.4361 22.9403C96.6596 23.5843 96.0772 24.4508 95.6889 25.5398C95.3101 26.6193 95.1207 27.8267 95.1207 29.1619C95.1207 30.4877 95.3101 31.6903 95.6889 32.7699C96.0772 33.8494 96.6596 34.7112 97.4361 35.3551C98.2221 35.9896 99.2069 36.3068 100.391 36.3068ZM119.823 27.2159V40H114.681V18.1818H119.596V21.8892H119.852C120.353 20.6676 121.154 19.697 122.252 18.9773C123.36 18.2576 124.728 17.8977 126.357 17.8977C127.863 17.8977 129.174 18.2197 130.292 18.8636C131.419 19.5076 132.29 20.4403 132.906 21.6619C133.531 22.8835 133.838 24.3655 133.829 26.108V40H128.687V26.9034C128.687 25.4451 128.308 24.304 127.55 23.4801C126.802 22.6562 125.765 22.2443 124.44 22.2443C123.54 22.2443 122.74 22.4432 122.039 22.8409C121.348 23.2292 120.803 23.7926 120.406 24.5312C120.017 25.2699 119.823 26.1648 119.823 27.2159ZM148.215 40.4261C146.028 40.4261 144.138 39.9716 142.548 39.0625C140.966 38.1439 139.749 36.8466 138.897 35.1705C138.045 33.4848 137.619 31.5009 137.619 29.2188C137.619 26.9744 138.045 25.0047 138.897 23.3097C139.759 21.6051 140.961 20.2794 142.505 19.3324C144.049 18.3759 145.862 17.8977 147.945 17.8977C149.29 17.8977 150.559 18.1155 151.752 18.5511C152.955 18.9773 154.015 19.6402 154.934 20.5398C155.862 21.4394 156.591 22.5852 157.121 23.9773C157.652 25.3598 157.917 27.0076 157.917 28.9205V30.4972H140.033V27.0312H152.988C152.978 26.0464 152.765 25.1705 152.349 24.4034C151.932 23.6269 151.35 23.0161 150.602 22.571C149.863 22.1259 149.001 21.9034 148.016 21.9034C146.965 21.9034 146.042 22.1591 145.246 22.6705C144.451 23.1723 143.831 23.8352 143.386 24.6591C142.95 25.4735 142.728 26.3684 142.718 27.3438V30.3693C142.718 31.6383 142.95 32.7273 143.414 33.6364C143.878 34.536 144.527 35.2273 145.36 35.7102C146.193 36.1837 147.169 36.4205 148.286 36.4205C149.034 36.4205 149.711 36.3163 150.317 36.108C150.924 35.8902 151.449 35.5729 151.894 35.1562C152.339 34.7396 152.675 34.2235 152.903 33.608L157.704 34.1477C157.401 35.4167 156.823 36.5246 155.971 37.4716C155.128 38.4091 154.049 39.1383 152.732 39.6591C151.416 40.1705 149.91 40.4261 148.215 40.4261ZM164.338 48.1818C163.637 48.1818 162.989 48.125 162.392 48.0114C161.805 47.9072 161.336 47.7841 160.986 47.642L162.179 43.6364C162.927 43.8542 163.595 43.9583 164.182 43.9489C164.769 43.9394 165.285 43.7547 165.73 43.3949C166.185 43.0445 166.568 42.4574 166.881 41.6335L167.321 40.4545L159.409 18.1818H164.864L169.892 34.6591H170.119L175.162 18.1818H180.631L171.895 42.642C171.488 43.7973 170.948 44.7869 170.276 45.6108C169.603 46.4441 168.779 47.0786 167.804 47.5142C166.838 47.9593 165.683 48.1818 164.338 48.1818Z" fill="black"/>
<circle cx="35.8182" cy="27.8182" r="12.8182" fill="#FFC045"/>
<path d="M16.5001 19C16.5001 32.8071 28.8072 39.9999 15.0001 39.9999C1.19295 39.9999 0 29.8071 0 16C0 2.19288 19.193 0 33.0001 0C46.8072 0 16.5001 5.19283 16.5001 19Z" fill="#F3A100"/>
</svg>
